<svg width="24" height="24" viewBox="0 0 24 24" fill="none" xmlns="http://www.w3.org/2000/svg">
<path d="M16.6667 12.6667C17.0349 12.6667 17.3333 12.3682 17.3333 12C17.3333 11.6318 17.0349 11.3333 16.6667 11.3333C16.2985 11.3333 16 11.6318 16 12C16 12.3682 16.2985 12.6667 16.6667 12.6667Z" stroke="#6F6F6F" stroke-width="1.33333" stroke-linecap="round" stroke-linejoin="round"/>
<path d="M12 12.6667C12.3682 12.6667 12.6667 12.3682 12.6667 12C12.6667 11.6318 12.3682 11.3333 12 11.3333C11.6318 11.3333 11.3333 11.6318 11.3333 12C11.3333 12.3682 11.6318 12.6667 12 12.6667Z" stroke="#6F6F6F" stroke-width="1.33333" stroke-linecap="round" stroke-linejoin="round"/>
<path d="M7.33333 12.6667C7.70152 12.6667 8 12.3682 8 12C8 11.6318 7.70152 11.3333 7.33333 11.3333C6.96514 11.3333 6.66666 11.6318 6.66666 12C6.66666 12.3682 6.96514 12.6667 7.33333 12.6667Z" stroke="#6F6F6F" stroke-width="1.33333" stroke-linecap="round" stroke-linejoin="round"/>
</svg>
