<svg width="92" height="42" viewBox="0 0 92 42" fill="none" xmlns="http://www.w3.org/2000/svg">
<rect width="92" height="40" rx="20" fill="#F5F5F5"/>
<g filter="url(#filter0_dd_9042_352)">
<rect x="4" y="4" width="48" height="32" rx="16" fill="white"/>
<g clip-path="url(#clip0_9042_352)">
<path d="M28 24C30.2091 24 32 22.2091 32 20C32 17.7909 30.2091 16 28 16C25.7909 16 24 17.7909 24 20C24 22.2091 25.7909 24 28 24Z" stroke="#131313" stroke-width="1.5" stroke-linecap="round" stroke-linejoin="round"/>
<path d="M34.6667 20H35.3334" stroke="#131313" stroke-width="1.5" stroke-linecap="round" stroke-linejoin="round"/>
<path d="M28 13.3332V12.6665" stroke="#131313" stroke-width="1.5" stroke-linecap="round" stroke-linejoin="round"/>
<path d="M28 27.3332V26.6665" stroke="#131313" stroke-width="1.5" stroke-linecap="round" stroke-linejoin="round"/>
<path d="M33.3334 25.3332L32.6667 24.6665" stroke="#131313" stroke-width="1.5" stroke-linecap="round" stroke-linejoin="round"/>
<path d="M33.3334 14.6665L32.6667 15.3332" stroke="#131313" stroke-width="1.5" stroke-linecap="round" stroke-linejoin="round"/>
<path d="M22.6667 25.3332L23.3334 24.6665" stroke="#131313" stroke-width="1.5" stroke-linecap="round" stroke-linejoin="round"/>
<path d="M22.6667 14.6665L23.3334 15.3332" stroke="#131313" stroke-width="1.5" stroke-linecap="round" stroke-linejoin="round"/>
<path d="M20.6667 20H21.3334" stroke="#131313" stroke-width="1.5" stroke-linecap="round" stroke-linejoin="round"/>
</g>
</g>
<g clip-path="url(#clip1_9042_352)">
<path d="M70.6062 27.6469C66.3875 27.6469 62.9594 24.2156 62.9594 20C62.9594 15.7844 66.3906 12.3531 70.6062 12.3531C70.8625 12.3531 71.1187 12.3656 71.375 12.3906C71.6 12.4125 71.7968 12.5531 71.8906 12.7562C71.9843 12.9594 71.9656 13.2 71.8406 13.3875C71.1218 14.4437 70.7406 15.6781 70.7406 16.9562C70.7406 20.2375 73.2 22.9625 76.4656 23.2875C76.6906 23.3094 76.8875 23.45 76.9812 23.6531C77.0781 23.8562 77.0562 24.0969 76.9312 24.2844C75.5 26.3906 73.1375 27.6469 70.6062 27.6469ZM70.2156 13.6469C66.8875 13.85 64.2406 16.6219 64.2406 20C64.2406 23.5094 67.0968 26.3656 70.6062 26.3656C72.3687 26.3656 74.0312 25.6344 75.225 24.375C73.7812 24.0094 72.4718 23.225 71.45 22.1062C70.1656 20.6937 69.4562 18.8687 69.4562 16.9625C69.4593 15.8031 69.7187 14.675 70.2156 13.6469Z" fill="#6F6F6F"/>
</g>
<defs>
<filter id="filter0_dd_9042_352" x="3" y="4" width="50" height="38" filterUnits="userSpaceOnUse" color-interpolation-filters="sRGB">
<feFlood flood-opacity="0" result="BackgroundImageFix"/>
<feColorMatrix in="SourceAlpha" type="matrix" values="0 0 0 0 0 0 0 0 0 0 0 0 0 0 0 0 0 0 127 0" result="hardAlpha"/>
<feMorphology radius="2" operator="erode" in="SourceAlpha" result="effect1_dropShadow_9042_352"/>
<feOffset dy="5"/>
<feGaussianBlur stdDeviation="1.5"/>
<feComposite in2="hardAlpha" operator="out"/>
<feColorMatrix type="matrix" values="0 0 0 0 0 0 0 0 0 0 0 0 0 0 0 0 0 0 0.02 0"/>
<feBlend mode="normal" in2="BackgroundImageFix" result="effect1_dropShadow_9042_352"/>
<feColorMatrix in="SourceAlpha" type="matrix" values="0 0 0 0 0 0 0 0 0 0 0 0 0 0 0 0 0 0 127 0" result="hardAlpha"/>
<feMorphology radius="2" operator="erode" in="SourceAlpha" result="effect2_dropShadow_9042_352"/>
<feOffset dy="3"/>
<feGaussianBlur stdDeviation="1"/>
<feComposite in2="hardAlpha" operator="out"/>
<feColorMatrix type="matrix" values="0 0 0 0 0 0 0 0 0 0 0 0 0 0 0 0 0 0 0.06 0"/>
<feBlend mode="normal" in2="effect1_dropShadow_9042_352" result="effect2_dropShadow_9042_352"/>
<feBlend mode="normal" in="SourceGraphic" in2="effect2_dropShadow_9042_352" result="shape"/>
</filter>
<clipPath id="clip0_9042_352">
<rect width="16" height="16" fill="white" transform="translate(20 12)"/>
</clipPath>
<clipPath id="clip1_9042_352">
<rect width="16" height="16" fill="white" transform="translate(62 12)"/>
</clipPath>
</defs>
</svg>
