<svg width="129" height="40" viewBox="0 0 129 40" fill="none" xmlns="http://www.w3.org/2000/svg">
<path fill-rule="evenodd" clip-rule="evenodd" d="M33.5274 14.3022H37.8941C39.8395 14.3022 41.3227 14.5548 42.3436 15.0599C43.3784 15.565 43.8958 16.4115 43.8958 17.5992C43.8958 18.5549 43.5991 19.3058 43.0059 19.8519C42.6133 20.2132 42.1544 20.5058 41.6289 20.7297C41.3603 20.8441 41.0742 20.9406 40.7708 21.0192C41.0847 21.0793 41.3754 21.1587 41.6429 21.2574C42.1042 21.4278 42.4965 21.6555 42.8196 21.9407C43.3301 22.3912 43.5853 23.0875 43.5853 24.0295C43.5853 25.3947 43.0266 26.4937 41.909 27.3265C40.8053 28.1457 38.9979 28.5552 36.4868 28.5552H31.52L33.5274 14.3022ZM41.882 20.9802C42.2153 21.142 42.8867 21.3387 43.1516 21.5724C43.8047 22.1488 44.084 23.0039 44.084 24.0295C44.084 25.5522 43.4496 26.7962 42.209 27.7207L42.2082 27.7213C40.9719 28.6388 39.0284 29.0487 36.4868 29.0487H30.947L33.0934 13.8087H37.8941C39.8689 13.8087 41.4427 14.0628 42.5655 14.618C43.1542 14.9056 43.6195 15.303 43.9344 15.8182C44.2489 16.3327 44.3945 16.9335 44.3945 17.5992C44.3945 18.6634 44.0596 19.5559 43.3455 20.2132C43.0195 20.5133 42.2837 20.7686 41.882 20.9802Z" fill="#1458DD"/>
<path fill-rule="evenodd" clip-rule="evenodd" d="M31.579 15.2547C32.1077 15.2547 32.5644 15.2547 32.9938 15.2547C33.1281 15.2547 33.258 14.3022 33.3836 14.3022C34.1227 14.3022 34.7159 14.3022 35.2124 14.3022C35.3043 14.3022 35.393 15.2547 35.4787 15.2547C36.5513 15.2547 37.1519 15.2547 37.8946 15.2547C39.84 15.2547 37.5228 15.5073 38.5437 16.0124C39.5785 16.5175 38.147 17.364 38.147 18.5517C38.147 19.5074 37.8503 20.2583 37.2571 20.8044C36.8645 21.1657 36.4055 21.4583 35.8801 21.6822C35.6114 21.7966 35.3254 21.8931 35.022 21.9717C35.3359 22.0318 35.6266 22.1112 35.8941 22.2099C36.3554 22.3802 36.163 22.608 36.4861 22.8932C36.9966 23.3437 37.2519 24.04 37.2519 24.982C37.2519 26.3472 42.15 26.97 41.0325 27.8028C39.9287 28.6219 37.0495 29.5077 34.5384 29.5077H29.5715L31.579 15.2547ZM36.1332 21.9327C36.4665 22.0945 36.5532 22.2912 36.8181 22.5249C37.4712 23.1013 37.7506 23.9564 37.7506 24.982C37.7506 26.5047 42.5731 27.2725 41.3325 28.197L41.3317 28.1976C40.0954 29.1151 37.0799 30.0012 34.5384 30.0012H28.9985L31.145 14.7612H33.0913L33.4323 13.8087H35.2838L35.5761 14.7612H37.8946C39.8693 14.7612 37.6428 15.0153 38.7656 15.5705C39.3543 15.8581 37.8707 16.2555 38.1856 16.7707C38.5001 17.2852 38.6457 17.886 38.6457 18.5517C38.6457 19.6159 38.3108 20.5084 37.5967 21.1657C37.2707 21.4658 36.5348 21.7211 36.1332 21.9327Z" fill="#1458DD"/>
<path d="M43.4385 19.5616C44.4134 19.746 45.1918 20.0919 45.7736 20.5991C46.3554 21.1063 46.6463 21.8902 46.6463 22.9507C46.6463 24.4877 46.0095 25.725 44.7358 26.6626C43.4778 27.5848 41.4179 28.0459 38.5561 28.0459H32.8953L35.1832 11.9995H40.16C42.3771 11.9995 44.0675 12.2839 45.2311 12.8526C46.4104 13.4212 47.0001 14.3742 47.0001 15.7114C47.0001 16.7873 46.662 17.6327 45.9859 18.2475C45.3097 18.8623 44.4606 19.3003 43.4385 19.5616ZM39.8533 18.2013C40.7496 18.2013 41.3393 18.0246 41.6223 17.6711C41.9211 17.3022 42.0705 16.8488 42.0705 16.3108C42.0705 15.9419 41.9211 15.673 41.6223 15.5039C41.3393 15.3348 40.8597 15.2503 40.1835 15.2503H39.4524L39.0278 18.2013H39.8533ZM39.0278 24.7029C40.0813 24.7029 40.7968 24.5185 41.1742 24.1496C41.5673 23.7653 41.7639 23.2274 41.7639 22.5357C41.7639 21.6442 41.0956 21.1985 39.759 21.1985H38.6032L38.1079 24.7029H39.0278Z" fill="#1458DD"/>
<path d="M59.2907 27V13.9091H64.3021C65.2481 13.9091 66.0343 14.0582 66.6607 14.3565C67.2914 14.6506 67.7623 15.0533 68.0734 15.5646C68.3887 16.076 68.5464 16.6555 68.5464 17.3033C68.5464 17.8359 68.4441 18.2919 68.2396 18.6712C68.035 19.0462 67.7602 19.3509 67.415 19.5852C67.0698 19.8196 66.6842 19.9879 66.258 20.0902V20.218C66.7225 20.2436 67.1678 20.3864 67.594 20.6463C68.0244 20.902 68.3759 21.2642 68.6487 21.733C68.9214 22.2017 69.0578 22.7685 69.0578 23.4332C69.0578 24.1108 68.8937 24.7202 68.5656 25.2614C68.2374 25.7983 67.7431 26.2223 67.0826 26.5334C66.4221 26.8445 65.5911 27 64.5897 27H59.2907ZM61.6622 25.0185H64.2126C65.0734 25.0185 65.6934 24.8544 66.0727 24.5263C66.4562 24.1939 66.6479 23.7678 66.6479 23.2479C66.6479 22.8601 66.5521 22.5107 66.3603 22.1996C66.1685 21.8842 65.8958 21.6371 65.5421 21.4581C65.1884 21.2749 64.7666 21.1832 64.2765 21.1832H61.6622V25.0185ZM61.6622 19.4766H64.008C64.4171 19.4766 64.7857 19.402 65.1139 19.2528C65.442 19.0994 65.6998 18.8842 65.8873 18.6072C66.0791 18.326 66.1749 17.9936 66.1749 17.6101C66.1749 17.103 65.996 16.6854 65.638 16.3572C65.2843 16.0291 64.758 15.8651 64.0592 15.8651H61.6622V19.4766ZM70.7665 27V17.1818H73.0101V18.8182H73.1124C73.2914 18.2514 73.5982 17.8146 74.0328 17.5078C74.4718 17.1967 74.9725 17.0412 75.535 17.0412C75.6628 17.0412 75.8056 17.0476 75.9632 17.0604C76.1252 17.0689 76.2594 17.0838 76.3659 17.1051V19.2337C76.2679 19.1996 76.1124 19.1697 75.8993 19.1442C75.6905 19.1143 75.4881 19.0994 75.2921 19.0994C74.8702 19.0994 74.4909 19.1911 74.1543 19.3743C73.8219 19.5533 73.5598 19.8026 73.3681 20.1222C73.1763 20.4418 73.0804 20.8104 73.0804 21.228V27H70.7665ZM81.5935 27.1918C80.6091 27.1918 79.759 26.9872 79.0431 26.5781C78.3314 26.1648 77.7839 25.581 77.4003 24.8267C77.0168 24.0682 76.8251 23.1754 76.8251 22.1484C76.8251 21.1385 77.0168 20.2521 77.4003 19.4893C77.7881 18.7223 78.3293 18.1257 79.0239 17.6996C79.7185 17.2692 80.5346 17.054 81.4721 17.054C82.0772 17.054 82.6482 17.152 83.1851 17.348C83.7263 17.5398 84.2036 17.8381 84.617 18.2429C85.0346 18.6477 85.3627 19.1634 85.6013 19.7898C85.84 20.4119 85.9593 21.1534 85.9593 22.0142V22.7237H77.9117V21.1641H83.7413C83.737 20.7209 83.6411 20.3267 83.4536 19.9815C83.2661 19.6321 83.004 19.3572 82.6674 19.157C82.335 18.9567 81.9472 18.8565 81.504 18.8565C81.031 18.8565 80.6155 18.9716 80.2576 19.2017C79.8996 19.4276 79.6205 19.7259 79.4202 20.0966C79.2242 20.4631 79.1241 20.8658 79.1198 21.3047V22.6662C79.1198 23.2372 79.2242 23.7273 79.433 24.1364C79.6418 24.5412 79.9337 24.8523 80.3087 25.0696C80.6837 25.2827 81.1226 25.3892 81.6255 25.3892C81.9621 25.3892 82.2668 25.3423 82.5395 25.2486C82.8123 25.1506 83.0488 25.0078 83.2491 24.8203C83.4493 24.6328 83.6006 24.4006 83.7029 24.1236L85.8634 24.3665C85.727 24.9375 85.4671 25.4361 85.0836 25.8622C84.7043 26.2841 84.2185 26.6122 83.6262 26.8466C83.0339 27.0767 82.3563 27.1918 81.5935 27.1918ZM92.0114 27.1918C91.0271 27.1918 90.1769 26.9872 89.461 26.5781C88.7494 26.1648 88.2018 25.581 87.8183 24.8267C87.4347 24.0682 87.243 23.1754 87.243 22.1484C87.243 21.1385 87.4347 20.2521 87.8183 19.4893C88.206 18.7223 88.7472 18.1257 89.4418 17.6996C90.1364 17.2692 90.9525 17.054 91.89 17.054C92.4951 17.054 93.0661 17.152 93.6031 17.348C94.1443 17.5398 94.6215 17.8381 95.0349 18.2429C95.4525 18.6477 95.7806 19.1634 96.0193 19.7898C96.2579 20.4119 96.3772 21.1534 96.3772 22.0142V22.7237H88.3296V21.1641H94.1592C94.1549 20.7209 94.059 20.3267 93.8715 19.9815C93.684 19.6321 93.422 19.3572 93.0853 19.157C92.7529 18.9567 92.3651 18.8565 91.922 18.8565C91.4489 18.8565 91.0335 18.9716 90.6755 19.2017C90.3176 19.4276 90.0384 19.7259 89.8381 20.0966C89.6421 20.4631 89.542 20.8658 89.5377 21.3047V22.6662C89.5377 23.2372 89.6421 23.7273 89.8509 24.1364C90.0597 24.5412 90.3516 24.8523 90.7266 25.0696C91.1016 25.2827 91.5406 25.3892 92.0434 25.3892C92.3801 25.3892 92.6847 25.3423 92.9575 25.2486C93.2302 25.1506 93.4667 25.0078 93.667 24.8203C93.8673 24.6328 94.0185 24.4006 94.1208 24.1236L96.2813 24.3665C96.145 24.9375 95.885 25.4361 95.5015 25.8622C95.1222 26.2841 94.6364 26.6122 94.0441 26.8466C93.4518 27.0767 92.7742 27.1918 92.0114 27.1918ZM105.843 19.777L103.733 20.0071C103.674 19.794 103.569 19.5938 103.42 19.4062C103.275 19.2188 103.079 19.0675 102.832 18.9524C102.585 18.8374 102.282 18.7798 101.924 18.7798C101.443 18.7798 101.038 18.8842 100.71 19.093C100.386 19.3018 100.226 19.5724 100.231 19.9048C100.226 20.1903 100.331 20.4226 100.544 20.6016C100.761 20.7805 101.119 20.9276 101.618 21.0426L103.292 21.4006C104.221 21.6009 104.912 21.9183 105.363 22.353C105.819 22.7876 106.049 23.3565 106.054 24.0597C106.049 24.6776 105.868 25.223 105.51 25.696C105.157 26.1648 104.664 26.5312 104.034 26.7955C103.403 27.0597 102.679 27.1918 101.86 27.1918C100.659 27.1918 99.6914 26.9403 98.9585 26.4375C98.2255 25.9304 97.7887 25.2251 97.6481 24.3217L99.9045 24.1044C100.007 24.5476 100.224 24.8821 100.556 25.108C100.889 25.3338 101.321 25.4467 101.854 25.4467C102.404 25.4467 102.845 25.3338 103.177 25.108C103.514 24.8821 103.682 24.603 103.682 24.2706C103.682 23.9893 103.574 23.7571 103.356 23.5739C103.143 23.3906 102.811 23.25 102.359 23.152L100.684 22.8004C99.7426 22.6044 99.0458 22.2741 98.5941 21.8097C98.1424 21.3409 97.9187 20.7486 97.923 20.0327C97.9187 19.4276 98.0828 18.9034 98.4152 18.4602C98.7518 18.0128 99.2184 17.6676 99.815 17.4247C100.416 17.1776 101.108 17.054 101.892 17.054C103.043 17.054 103.949 17.299 104.609 17.7891C105.274 18.2791 105.685 18.9418 105.843 19.777Z" fill="#252C32"/>
</svg>
