<svg width="146" height="36" viewBox="0 0 146 36" fill="none" xmlns="http://www.w3.org/2000/svg">
<g filter="url(#filter0_d_9042_635)">
<rect x="2" y="1" width="32" height="32" rx="8" fill="white"/>
<path d="M22.75 17C22.75 17.1989 22.671 17.3897 22.5303 17.5303C22.3897 17.671 22.1989 17.75 22 17.75H14C13.8011 17.75 13.6103 17.671 13.4697 17.5303C13.329 17.3897 13.25 17.1989 13.25 17C13.25 16.8011 13.329 16.6103 13.4697 16.4697C13.6103 16.329 13.8011 16.25 14 16.25H22C22.1989 16.25 22.3897 16.329 22.5303 16.4697C22.671 16.6103 22.75 16.8011 22.75 17ZM24.5 13.25H11.5C11.3011 13.25 11.1103 13.329 10.9697 13.4697C10.829 13.6103 10.75 13.8011 10.75 14C10.75 14.1989 10.829 14.3897 10.9697 14.5303C11.1103 14.671 11.3011 14.75 11.5 14.75H24.5C24.6989 14.75 24.8897 14.671 25.0303 14.5303C25.171 14.3897 25.25 14.1989 25.25 14C25.25 13.8011 25.171 13.6103 25.0303 13.4697C24.8897 13.329 24.6989 13.25 24.5 13.25ZM19.5 19.25H16.5C16.3011 19.25 16.1103 19.329 15.9697 19.4697C15.829 19.6103 15.75 19.8011 15.75 20C15.75 20.1989 15.829 20.3897 15.9697 20.5303C16.1103 20.671 16.3011 20.75 16.5 20.75H19.5C19.6989 20.75 19.8897 20.671 20.0303 20.5303C20.171 20.3897 20.25 20.1989 20.25 20C20.25 19.8011 20.171 19.6103 20.0303 19.4697C19.8897 19.329 19.6989 19.25 19.5 19.25Z" fill="#344054"/>
<rect x="2.5" y="1.5" width="31" height="31" rx="7.5" stroke="#D0D5DD"/>
</g>
<g filter="url(#filter1_d_9042_635)">
<rect x="42" y="1" width="32" height="32" rx="8" fill="white"/>
<path d="M64.5303 15.0299C64.4607 15.0995 64.378 15.1548 64.287 15.1925C64.196 15.2302 64.0985 15.2496 64 15.2496C63.9015 15.2496 63.804 15.2302 63.713 15.1925C63.622 15.1549 63.5393 15.0996 63.4697 15.03L62.25 13.8105V18C62.25 18.1989 62.171 18.3897 62.0303 18.5303C61.8897 18.671 61.6989 18.75 61.5 18.75C61.3011 18.75 61.1103 18.671 60.9697 18.5303C60.829 18.3897 60.75 18.1989 60.75 18V13.8107L59.5303 15.0303C59.3896 15.1708 59.1989 15.2497 59.0001 15.2496C58.8013 15.2496 58.6106 15.1706 58.47 15.03C58.3294 14.8894 58.2504 14.6987 58.2504 14.4999C58.2503 14.3011 58.3292 14.1104 58.4697 13.9697L60.9697 11.4697C60.9709 11.4685 60.9722 11.4675 60.9734 11.4663C60.9897 11.4502 61.0067 11.4347 61.0245 11.4201C61.0335 11.4127 61.0429 11.4063 61.0521 11.3994C61.0625 11.3917 61.0727 11.3836 61.0835 11.3764C61.0943 11.3692 61.1054 11.3629 61.1165 11.3563C61.1265 11.3504 61.1362 11.3441 61.1465 11.3386C61.1577 11.3326 61.1692 11.3276 61.1805 11.3222C61.1913 11.3171 61.2019 11.3117 61.213 11.3071C61.2241 11.3026 61.2354 11.2989 61.2466 11.2948C61.2585 11.2906 61.2701 11.286 61.2823 11.2823C61.2935 11.279 61.3049 11.2765 61.3162 11.2736C61.3286 11.2705 61.3408 11.267 61.3535 11.2645C61.3665 11.2619 61.3797 11.2604 61.3929 11.2585C61.4039 11.2569 61.4148 11.2548 61.426 11.2537C61.4506 11.2513 61.4753 11.25 61.5 11.25L61.5006 11.25C61.5251 11.25 61.5496 11.2513 61.574 11.2537C61.585 11.2548 61.5956 11.2569 61.6064 11.2584C61.6198 11.2603 61.6333 11.2619 61.6466 11.2645C61.6589 11.267 61.6708 11.2704 61.6829 11.2734C61.6945 11.2763 61.7063 11.2789 61.7178 11.2824C61.7296 11.286 61.7409 11.2904 61.7524 11.2945C61.764 11.2986 61.7757 11.3025 61.7871 11.3072C61.7978 11.3116 61.808 11.3168 61.8184 11.3217C61.8302 11.3272 61.8421 11.3325 61.8537 11.3387C61.8635 11.3439 61.8727 11.3499 61.8823 11.3556C61.8938 11.3624 61.9054 11.3689 61.9166 11.3765C61.9269 11.3833 61.9366 11.391 61.9465 11.3984C61.9562 11.4056 61.9661 11.4124 61.9755 11.4201C61.992 11.4337 62.0077 11.4482 62.023 11.463C62.0254 11.4653 62.028 11.4673 62.0303 11.4696L64.5302 13.9692C64.5999 14.0388 64.6551 14.1215 64.6928 14.2125C64.7305 14.3035 64.7499 14.401 64.7499 14.4995C64.7499 14.598 64.7306 14.6955 64.6929 14.7865C64.6552 14.8775 64.5999 14.9602 64.5303 15.0299ZM53 17.75H57.4999C57.6988 17.75 57.8896 17.671 58.0303 17.5303C58.1709 17.3897 58.2499 17.1989 58.2499 17C58.2499 16.8011 58.1709 16.6103 58.0303 16.4697C57.8896 16.329 57.6988 16.25 57.4999 16.25H53C52.8011 16.25 52.6103 16.329 52.4697 16.4697C52.329 16.6103 52.25 16.8011 52.25 17C52.25 17.1989 52.329 17.3897 52.4697 17.5303C52.6103 17.671 52.8011 17.75 53 17.75ZM53 13.75H56.4999C56.6988 13.75 56.8896 13.671 57.0303 13.5303C57.1709 13.3897 57.2499 13.1989 57.2499 13C57.2499 12.8011 57.1709 12.6103 57.0303 12.4697C56.8896 12.329 56.6988 12.25 56.4999 12.25H53C52.8011 12.25 52.6103 12.329 52.4697 12.4697C52.329 12.6103 52.25 12.8011 52.25 13C52.25 13.1989 52.329 13.3897 52.4697 13.5303C52.6103 13.671 52.8011 13.75 53 13.75ZM61.4999 20.25H53C52.8011 20.25 52.6103 20.329 52.4697 20.4697C52.329 20.6103 52.25 20.8011 52.25 21C52.25 21.1989 52.329 21.3897 52.4697 21.5303C52.6103 21.671 52.8011 21.75 53 21.75H61.4999C61.6988 21.75 61.8896 21.671 62.0303 21.5303C62.1709 21.3897 62.2499 21.1989 62.2499 21C62.2499 20.8011 62.1709 20.6103 62.0303 20.4697C61.8896 20.329 61.6988 20.25 61.4999 20.25Z" fill="#344054"/>
<rect x="42.5" y="1.5" width="31" height="31" rx="7.5" stroke="#D0D5DD"/>
</g>
<g filter="url(#filter2_d_9042_635)">
<path d="M82 7C82 3.68629 84.6863 1 88 1H114V33H88C84.6863 33 82 30.3137 82 27V7Z" fill="#F6F8F9"/>
<path d="M93 10C92.4696 10 91.9609 10.2107 91.5858 10.5858C91.2107 10.9609 91 11.4696 91 12V14C91 14.5304 91.2107 15.0391 91.5858 15.4142C91.9609 15.7893 92.4696 16 93 16H95C95.5304 16 96.0391 15.7893 96.4142 15.4142C96.7893 15.0391 97 14.5304 97 14V12C97 11.4696 96.7893 10.9609 96.4142 10.5858C96.0391 10.2107 95.5304 10 95 10H93ZM93 18C92.4696 18 91.9609 18.2107 91.5858 18.5858C91.2107 18.9609 91 19.4696 91 20V22C91 22.5304 91.2107 23.0391 91.5858 23.4142C91.9609 23.7893 92.4696 24 93 24H95C95.5304 24 96.0391 23.7893 96.4142 23.4142C96.7893 23.0391 97 22.5304 97 22V20C97 19.4696 96.7893 18.9609 96.4142 18.5858C96.0391 18.2107 95.5304 18 95 18H93ZM99 12C99 11.4696 99.2107 10.9609 99.5858 10.5858C99.9609 10.2107 100.47 10 101 10H103C103.53 10 104.039 10.2107 104.414 10.5858C104.789 10.9609 105 11.4696 105 12V14C105 14.5304 104.789 15.0391 104.414 15.4142C104.039 15.7893 103.53 16 103 16H101C100.47 16 99.9609 15.7893 99.5858 15.4142C99.2107 15.0391 99 14.5304 99 14V12ZM99 20C99 19.4696 99.2107 18.9609 99.5858 18.5858C99.9609 18.2107 100.47 18 101 18H103C103.53 18 104.039 18.2107 104.414 18.5858C104.789 18.9609 105 19.4696 105 20V22C105 22.5304 104.789 23.0391 104.414 23.4142C104.039 23.7893 103.53 24 103 24H101C100.47 24 99.9609 23.7893 99.5858 23.4142C99.2107 23.0391 99 22.5304 99 22V20Z" fill="#1458DD"/>
<path d="M82.5 7C82.5 3.96243 84.9624 1.5 88 1.5H113.5V32.5H88C84.9624 32.5 82.5 30.0376 82.5 27V7Z" stroke="#DDE2E4"/>
</g>
<path d="M114.5 1.5H140C143.038 1.5 145.5 3.96243 145.5 7V27C145.5 30.0376 143.038 32.5 140 32.5H114.5V1.5Z" fill="#F6F8F9"/>
<path fill-rule="evenodd" clip-rule="evenodd" d="M123 11C123 10.7348 123.105 10.4804 123.293 10.2929C123.48 10.1054 123.735 10 124 10H136C136.265 10 136.52 10.1054 136.707 10.2929C136.895 10.4804 137 10.7348 137 11C137 11.2652 136.895 11.5196 136.707 11.7071C136.52 11.8946 136.265 12 136 12H124C123.735 12 123.48 11.8946 123.293 11.7071C123.105 11.5196 123 11.2652 123 11ZM123 15C123 14.7348 123.105 14.4804 123.293 14.2929C123.48 14.1054 123.735 14 124 14H136C136.265 14 136.52 14.1054 136.707 14.2929C136.895 14.4804 137 14.7348 137 15C137 15.2652 136.895 15.5196 136.707 15.7071C136.52 15.8946 136.265 16 136 16H124C123.735 16 123.48 15.8946 123.293 15.7071C123.105 15.5196 123 15.2652 123 15ZM123 19C123 18.7348 123.105 18.4804 123.293 18.2929C123.48 18.1054 123.735 18 124 18H136C136.265 18 136.52 18.1054 136.707 18.2929C136.895 18.4804 137 18.7348 137 19C137 19.2652 136.895 19.5196 136.707 19.7071C136.52 19.8946 136.265 20 136 20H124C123.735 20 123.48 19.8946 123.293 19.7071C123.105 19.5196 123 19.2652 123 19ZM123 23C123 22.7348 123.105 22.4804 123.293 22.2929C123.48 22.1054 123.735 22 124 22H136C136.265 22 136.52 22.1054 136.707 22.2929C136.895 22.4804 137 22.7348 137 23C137 23.2652 136.895 23.5196 136.707 23.7071C136.52 23.8946 136.265 24 136 24H124C123.735 24 123.48 23.8946 123.293 23.7071C123.105 23.5196 123 23.2652 123 23Z" fill="#B0BABF"/>
<path d="M114.5 1.5H140C143.038 1.5 145.5 3.96243 145.5 7V27C145.5 30.0376 143.038 32.5 140 32.5H114.5V1.5Z" stroke="#DDE2E4"/>
<defs>
<filter id="filter0_d_9042_635" x="0" y="0" width="36" height="36" filterUnits="userSpaceOnUse" color-interpolation-filters="sRGB">
<feFlood flood-opacity="0" result="BackgroundImageFix"/>
<feColorMatrix in="SourceAlpha" type="matrix" values="0 0 0 0 0 0 0 0 0 0 0 0 0 0 0 0 0 0 127 0" result="hardAlpha"/>
<feOffset dy="1"/>
<feGaussianBlur stdDeviation="1"/>
<feColorMatrix type="matrix" values="0 0 0 0 0.0627451 0 0 0 0 0.0941176 0 0 0 0 0.156863 0 0 0 0.05 0"/>
<feBlend mode="normal" in2="BackgroundImageFix" result="effect1_dropShadow_9042_635"/>
<feBlend mode="normal" in="SourceGraphic" in2="effect1_dropShadow_9042_635" result="shape"/>
</filter>
<filter id="filter1_d_9042_635" x="40" y="0" width="36" height="36" filterUnits="userSpaceOnUse" color-interpolation-filters="sRGB">
<feFlood flood-opacity="0" result="BackgroundImageFix"/>
<feColorMatrix in="SourceAlpha" type="matrix" values="0 0 0 0 0 0 0 0 0 0 0 0 0 0 0 0 0 0 127 0" result="hardAlpha"/>
<feOffset dy="1"/>
<feGaussianBlur stdDeviation="1"/>
<feColorMatrix type="matrix" values="0 0 0 0 0.0627451 0 0 0 0 0.0941176 0 0 0 0 0.156863 0 0 0 0.05 0"/>
<feBlend mode="normal" in2="BackgroundImageFix" result="effect1_dropShadow_9042_635"/>
<feBlend mode="normal" in="SourceGraphic" in2="effect1_dropShadow_9042_635" result="shape"/>
</filter>
<filter id="filter2_d_9042_635" x="80" y="0" width="36" height="36" filterUnits="userSpaceOnUse" color-interpolation-filters="sRGB">
<feFlood flood-opacity="0" result="BackgroundImageFix"/>
<feColorMatrix in="SourceAlpha" type="matrix" values="0 0 0 0 0 0 0 0 0 0 0 0 0 0 0 0 0 0 127 0" result="hardAlpha"/>
<feOffset dy="1"/>
<feGaussianBlur stdDeviation="1"/>
<feComposite in2="hardAlpha" operator="out"/>
<feColorMatrix type="matrix" values="0 0 0 0 0.0627451 0 0 0 0 0.0941176 0 0 0 0 0.156863 0 0 0 0.05 0"/>
<feBlend mode="normal" in2="BackgroundImageFix" result="effect1_dropShadow_9042_635"/>
<feBlend mode="normal" in="SourceGraphic" in2="effect1_dropShadow_9042_635" result="shape"/>
</filter>
</defs>
</svg>
