<svg width="38" height="39" viewBox="0 0 38 39" fill="none" xmlns="http://www.w3.org/2000/svg">
<g filter="url(#filter0_d_9002_503)">
<rect x="35" width="32" height="32" rx="6" transform="rotate(90 35 0)" fill="white"/>
<g clip-path="url(#clip0_9002_503)">
<path d="M25.75 16C25.75 15.175 25.075 14.5 24.25 14.5C23.425 14.5 22.75 15.175 22.75 16C22.75 16.825 23.425 17.5 24.25 17.5C25.075 17.5 25.75 16.825 25.75 16ZM15.25 16C15.25 15.175 14.575 14.5 13.75 14.5C12.925 14.5 12.25 15.175 12.25 16C12.25 16.825 12.925 17.5 13.75 17.5C14.575 17.5 15.25 16.825 15.25 16ZM20.5 16C20.5 15.175 19.825 14.5 19 14.5C18.175 14.5 17.5 15.175 17.5 16C17.5 16.825 18.175 17.5 19 17.5C19.825 17.5 20.5 16.825 20.5 16Z" fill="#131313"/>
</g>
<rect x="34.5" y="0.5" width="31" height="31" rx="5.5" transform="rotate(90 34.5 0.5)" stroke="#EBEBEB"/>
</g>
<defs>
<filter id="filter0_d_9002_503" x="0" y="0" width="38" height="39" filterUnits="userSpaceOnUse" color-interpolation-filters="sRGB">
<feFlood flood-opacity="0" result="BackgroundImageFix"/>
<feColorMatrix in="SourceAlpha" type="matrix" values="0 0 0 0 0 0 0 0 0 0 0 0 0 0 0 0 0 0 127 0" result="hardAlpha"/>
<feOffset dy="4"/>
<feGaussianBlur stdDeviation="1.5"/>
<feColorMatrix type="matrix" values="0 0 0 0 0 0 0 0 0 0 0 0 0 0 0 0 0 0 0.02 0"/>
<feBlend mode="normal" in2="BackgroundImageFix" result="effect1_dropShadow_9002_503"/>
<feBlend mode="normal" in="SourceGraphic" in2="effect1_dropShadow_9002_503" result="shape"/>
</filter>
<clipPath id="clip0_9002_503">
<rect width="18" height="18" fill="white" transform="translate(28 7) rotate(90)"/>
</clipPath>
</defs>
</svg>
