<svg width="24" height="24" viewBox="0 0 24 24" fill="none" xmlns="http://www.w3.org/2000/svg">
<path fill-rule="evenodd" clip-rule="evenodd" d="M18.197 11.017C17.967 11.017 16.59 11.017 16.017 10.322C16.017 10.207 15.902 10.207 15.902 10.091C15.787 9.281 16.82 8.24 16.934 8.124C17.164 7.893 17.164 7.545 17.049 7.43C16.934 7.314 16.475 6.851 16.361 6.62C16.246 6.388 15.901 6.504 15.672 6.736C15.442 6.966 14.525 7.893 13.722 7.776C13.607 7.776 13.607 7.661 13.492 7.661C12.803 7.198 12.803 5.81 12.803 5.579C12.803 5.231 12.689 5 12.459 5H11.311C11.082 5 10.967 5.231 10.967 5.579C10.967 5.809 10.967 7.199 10.279 7.777C10.164 7.777 10.164 7.893 10.049 7.893C9.246 7.893 8.328 6.967 8.099 6.736C7.869 6.504 7.525 6.504 7.409 6.62C7.295 6.851 6.836 7.314 6.607 7.43C6.492 7.545 6.492 7.893 6.721 8.124C6.951 8.355 7.869 9.281 7.754 10.091C7.754 10.207 7.639 10.207 7.639 10.322C7.18 11.017 5.803 11.017 5.574 11.017C5.23 11.017 5 11.132 5 11.364V12.405C5 12.636 5.23 12.868 5.574 12.868C5.804 12.868 7.18 12.868 7.754 13.562C7.754 13.678 7.869 13.678 7.869 13.793C7.984 14.603 6.951 15.645 6.836 15.76C6.606 15.992 6.606 16.339 6.721 16.455C6.836 16.57 7.295 17.033 7.41 17.265C7.525 17.38 7.869 17.38 8.098 17.149C8.328 16.917 9.246 15.992 10.049 16.107C10.164 16.107 10.164 16.223 10.279 16.223C10.967 16.802 10.967 18.074 10.967 18.421C10.967 18.653 11.197 19 11.427 19H12.459C12.689 19 12.918 18.769 12.918 18.421C12.918 18.191 12.918 16.801 13.607 16.223C13.721 16.223 13.721 16.107 13.837 16.107C14.639 15.992 15.672 17.033 15.787 17.149C16.017 17.38 16.361 17.38 16.475 17.264L17.279 16.454C17.393 16.339 17.393 15.992 17.164 15.76C16.934 15.529 16.016 14.603 16.131 13.793C16.131 13.678 16.246 13.678 16.246 13.562C16.82 12.868 18.082 12.868 18.426 12.868C18.656 12.868 19 12.636 19 12.405V11.364C18.77 11.132 18.541 11.017 18.197 11.017ZM11.885 14.487C10.508 14.487 9.361 13.331 9.361 11.942C9.361 10.554 10.508 9.397 11.885 9.397C13.262 9.397 14.41 10.554 14.41 11.942C14.41 13.331 13.262 14.488 11.885 14.488V14.487Z" fill="#5B6871"/>
</svg>
